<?xml version="1.0" encoding="UTF-8"?>
<svg id="svg1" xmlns="http://www.w3.org/2000/svg" version="1.1" xmlns:svg="http://www.w3.org/2000/svg" viewBox="0 0 1821.33 1821.33">
  <!-- Generator: Adobe Illustrator 29.5.1, SVG Export Plug-In . SVG Version: 2.1.0 Build 141)  -->
  <defs>
    <style>
      .st0 {
        fill: #988561;
      }
    </style>
  </defs>
  <path id="path1" class="st0" d="M609.88,1285.16l57.05-57.24,5.77-35.57c25.99-41.33,55.04-80.88,80.55-122.5,4.45-7.25,15.79-23.8,17.81-30.87,2.03-7.11-3.87-19.17-6.47-26.47-6.79-19.08-15.11-39.05-24.62-56.84l-13.34,68.11c-6.68,34.09-8.04,59.05-36.54,82.61-17.63,14.58-42.83,18.83-65.01,21.91l47.29-201.01c-.7-2.25-14.08-7.96-15.63-6.87l-46.88,173.82c-11.57,36.86-61.14,54.7-96.2,57.02-2.51.17-7.39,1.23-7.28-2.36l80.72-240.1c-16.7-13.03-20.19,6.28-24.95,18.58-22.72,58.72-40.2,119.74-63.83,178.12-18.24,45.06-32.45,53.11-78.94,64.53-5.5,1.35-41.84,9.7-43.55,8.11,8.4-24.14,18.81-47.82,28.96-71.34,31.77-73.62,66.11-146.23,97.25-220.1.1-5.02-11.33-7.38-15.45-7.58l-120.66,260.54c-20.85,40.24-35.91,46.91-78.84,57.34-7.3,1.77-59.48,13.39-62.03,11.52l197.62-361.13c-3.41-3.02-10.15-9.87-14.62-6.05-3.01,2.57-14.38,22.55-17.41,27.58-36.4,60.56-68.82,128.22-107.47,186.77-18.11,27.44-33.25,34.58-65.2,40.58-18.09,3.4-42.28,7.36-60.43,8.88-3.81.32-7.72-.15-11.53,0l204.89-307.67c2.3-3.73-9.98-14.54-12.79-12.78-19.1,28.6-38.67,56.93-58.58,84.97-20.15,28.37-46.33,70.58-69.11,95.03-23.54,25.25-80.96,25.56-113.63,26.18-4.05.08-8.61,3.04-12.77-.6l206.44-259.19-10.1-13.78c-33.96,40.05-65.84,82.48-100.89,121.6-29.25,32.64-40.8,46.51-87.5,48.68-17.22.8-41.5,1.27-58.47,0-2.7-.2-5.19-1.03-7.85-1.28,11.27-13.76,23.59-27.11,35.85-40.13,85.17-90.51,171.99-179.97,258.36-269.33,25.8-26.7,78.64-88.45,109.5-102.06,28.06-12.38,92.85-11.22,124.65-9.22,51.99,3.27,40.83,50.37,43.05,88.26,1.97,33.7,6.55,55.16,23.86,84.35,32.15,54.25,96.9,87.85,160.25,80.19,31.83-3.84,32.42-11.85,41.49-39.98,6.05-18.78,11.53-39.85,16.32-59.06,2.07-8.3,8.92-30.07,6.83-37.05-6.21-20.7-46.3-16.77-60.63-5.81-2.52,1.93-7.13,8.87-9.37,7.76-11.22-16.17-11.99-40.75,5.71-52.75,31.04-16.42,58.91-39.4,94.78-43.83,37.01-4.57,100.7,7.27,111.95,49.46,12.91,48.42,10.97,107.71,22.61,157.34,4.65,19.83,16.26,22.81,35.46,24.12,94.2,6.43,172.92-66.85,178.16-159.95,2.16-38.31-11.85-89.09,41.91-93.05,23.64-1.74,58.86-1.32,82.71.06,56.65,3.27,74.22,32.26,110.02,68.72,59.85,60.96,118.42,123.09,177.52,184.81,52.73,55.08,106.53,109.15,158.08,165.35,1.05,2.44-4.23,2.92-5.45,3.03-17.42,1.5-44.25.93-62.01-.02-31-1.65-49.39-9.18-70.55-31.58-39.25-41.56-72.79-92.88-111.83-133.77-1.37-1.43-3.06-4.32-5.47-3.1-1.83.93-9.89,11.2-9.16,12.84l206.1,257.17c.32,2.47-.1,1.58-1.79,1.81-17.41,2.32-52.2-1.27-70.39-3.81-25.31-3.53-42.1-8.72-59.09-28.45l-123.58-174.39-12.11,10.89c67.13,103.63,138.55,204.53,203.73,309.45-14.85-.43-30.49-2.34-45.41-4.44-50.83-7.15-67.39-9.61-95.39-54.17-33.43-53.2-62.06-109.63-94.09-163.67-6.81-11.49-14.8-26.6-22.59-36.99-7.37-9.81-8.98-3.64-17.12,1.08l195.57,362.13c-45.08-11.49-107.34-9.04-131.94-55.9l-127.21-273.41c-6.48-1.42-11.23,4.01-16.78,5.99l.1,1.48,127.5,291.44c-1.41,1.3-32.92-5.58-37.7-6.67-54.33-12.41-68.09-21-88.44-73.27-24.84-63.83-44.2-129.88-69.81-193.42-3.28-.35-16.9-.02-16.64,3.8l82.5,244.02c-35.11-6.62-76.27-10.48-96.56-43.86-7.06-11.62-11.93-27-15.9-40.03-14.88-48.86-24.78-99.43-39.53-148.34-4.01.96-13.88,3.54-14.63,7.94l47.47,199.97c-3.25,2.34-43.39-9.26-49.46-11.93-17.61-7.76-36.71-28.66-42.99-46.98l-22.44-113.72c-1.94,1.51-2.99,3.49-4.11,5.61-7.83,14.8-15.98,36.46-21.73,52.44-6.86,19.06-9.53,18.88.7,37.6,27.79,50.86,67.03,95.74,93.53,147.22l3.36,28.25,58.34,58.38h142.86v60.79c-2.92-2.53-6.28-4.69-9.15-7.26-3.82-3.44-18.71-20.7-21.85-20.7h-32.22l30.37,31.01-31.61,30.41-2.41-1.23v-29.18l-29.72-29.85-32.26-.52-30.42,30.37v27.36l-36.39-36.04,30.29-31.45-54.02-54.17-30.73-2.1-112.81-74.43-.59,1.8c58.09,79.95,117.91,158.65,176.07,238.55,9.54,13.11,27.32,34.07,34.3,47.17.78,1.47,1.65,2.3,1.19,4.29h-60.19c-32.62,0-54.79-23.71-69.33-49.82-18.55-33.31-31.19-71.04-49.8-104.47-3.35,2.21-11.13,4.49-11.59,9.03l76.62,197.53c-2.23.59-4.29,1.12-6.64,1.29-25.33,1.87-53.21-4.54-72.97-20.77-19.85-16.31-23.63-33.18-29.23-57.1-8.34-35.63-13.45-72.23-20.06-108.21-4.55-.25-13.47-.35-14.01,5.41l17.66,141.1c1.93,35.56-15.09,57.74-40.1,80.25-1.66,1.5-10.29,9.43-10.97,9.78-.94.48-1.5.82-2.41,0-16.09-14.58-35.67-29.77-44.82-50.1-8.69-19.29-5.71-45.89-3.81-66.69,3.51-38.57,10.59-77,14.7-115.52l-.82-1.95c-10.37-2.87-11.8-4.95-14.53,6.17-17.75,72.07-5.47,172.01-104.53,177.55-3.36.19-19.74.56-21.33-.53-1.75-1.2-1.35-3.81-.59-5.55l77.25-195.73-13.95-6.12c-17.64,34.5-31.21,73.02-50.29,106.63-14.44,25.44-37.42,47.82-68.91,47.82h-60.19l212.76-290.01-1.79-1.79-112.54,74.71-29.8,1.81-54.02,54.17,30.29,31.45-36.39,36.04v-27.36l-30.42-30.37-31.95-.38-29.41,30.17c-2.07,9.54,1.1,20.54-1.81,29.82-.42,1.33.82,2.16-1.84,1.76l-30.73-31.01,17.35-17.6,9.1-12.17-30.75-.98-28.82,27.72v-60.79h142.86Z"/>
  <path id="path3" class="st0" d="M762.47,316.12l-27.51,46.79,32.37,45.59-51.43-10.74c-6.27,1.47-25.92,38.35-30.96,45.63-.74,1.07.2,2.25-2.71,1.59l-6.25-56.98c-14.64-4.84-31.3-7-45.78-11.98-1.24-.43-9.68-2.87-7.55-5.19,17.31-6.54,34.68-13.37,50.47-23.1l-1.83-54.73,36.07,41.21,55.11-18.1Z"/>
  <path id="path5" class="st0" d="M1201.4,372.06l-55.65,16.07-6.37,58.08-32.42-49.72-55.1,12.02,36.35-44.54-29.06-50.28,53.86,20.48c14.38-12.68,23.9-31.64,39.75-42.38l-4.31,58.38,52.95,21.88Z"/>
  <path id="path7" class="st0" d="M986.19,301.52l-1.84,3.63-42.77,32.2,16.64,54.13-48.03-32.59-46.18,32.61,15.06-55.12-46.07-34.87h57.75l18.86-55.93,21.26,55.93h55.32Z"/>
</svg>